<?xml version="1.0" standalone="no"?>
<!DOCTYPE svg PUBLIC "-//W3C//DTD SVG 1.1//EN" "http://www.w3.org/Graphics/SVG/1.1/DTD/svg11.dtd">
<svg version="1.1" xmlns="http://www.w3.org/2000/svg" viewBox="0 0 909.0283203125 855.498046875" width="1818.056640625" height="1710.99609375"><!-- svg-source:excalidraw --><metadata></metadata><defs><style class="style-fonts">
      </style></defs><rect x="0" y="0" width="909.0283203125" height="855.498046875" fill="#ffffff"></rect><g transform="translate(145 10) rotate(0 260 21)"><text x="260" y="26.1005859375" font-family="Helvetica, sans-serif, Segoe UI Emoji" font-size="30px" fill="#111827" text-anchor="middle" style="white-space: pre;" direction="ltr" dominant-baseline="alphabetic">msf Side-Router Proxy Architecture</text></g><g transform="translate(55 54) rotate(0 350 15)"><text x="350" y="14.79033203125" font-family="Helvetica, sans-serif, Segoe UI Emoji" font-size="17px" fill="#374151" text-anchor="middle" style="white-space: pre;" direction="ltr" dominant-baseline="alphabetic">MosDNS splits DNS; FakeIP routes proxy traffic back to msf</text></g><g stroke-linecap="round" transform="translate(10 105) rotate(0 438.57666015625 58.349609375)"><path d="M29.17 0 C338.4 0, 647.63 0, 847.98 0 C867.43 0, 877.15 9.72, 877.15 29.17 C877.15 48.48, 877.15 67.78, 877.15 87.52 C877.15 106.97, 867.43 116.7, 847.98 116.7 C619.82 116.7, 391.66 116.7, 29.17 116.7 C9.72 116.7, 0 106.97, 0 87.52 C0 71.19, 0 54.85, 0 29.17 C0 9.72, 9.72 0, 29.17 0" stroke="none" stroke-width="0" fill="#f8fafc"></path><path d="M29.17 0 C293.02 0, 556.86 0, 847.98 0 M29.17 0 C203.53 0, 377.88 0, 847.98 0 M847.98 0 C867.43 0, 877.15 9.72, 877.15 29.17 M847.98 0 C867.43 0, 877.15 9.72, 877.15 29.17 M877.15 29.17 C877.15 49.11, 877.15 69.04, 877.15 87.52 M877.15 29.17 C877.15 44.69, 877.15 60.2, 877.15 87.52 M877.15 87.52 C877.15 106.97, 867.43 116.7, 847.98 116.7 M877.15 87.52 C877.15 106.97, 867.43 116.7, 847.98 116.7 M847.98 116.7 C580.72 116.7, 313.47 116.7, 29.17 116.7 M847.98 116.7 C616.49 116.7, 385.01 116.7, 29.17 116.7 M29.17 116.7 C9.72 116.7, 0 106.97, 0 87.52 M29.17 116.7 C9.72 116.7, 0 106.97, 0 87.52 M0 87.52 C0 65.57, 0 43.61, 0 29.17 M0 87.52 C0 74.38, 0 61.24, 0 29.17 M0 29.17 C0 9.72, 9.72 0, 29.17 0 M0 29.17 C0 9.72, 9.72 0, 29.17 0" stroke="#334155" stroke-width="2" fill="none"></path></g><g transform="translate(30 114) rotate(0 130 12)"><text x="0" y="15.660351562499999" font-family="Helvetica, sans-serif, Segoe UI Emoji" font-size="18px" fill="#111827" text-anchor="start" style="white-space: pre;" direction="ltr" dominant-baseline="alphabetic">Control plane: setup and services</text></g><g stroke-linecap="round" transform="translate(40 150) rotate(0 65 21)"><path d="M10.5 0 C50.9 0, 91.3 0, 119.5 0 C126.5 0, 130 3.5, 130 10.5 C130 18.16, 130 25.82, 130 31.5 C130 38.5, 126.5 42, 119.5 42 C96.18 42, 72.85 42, 10.5 42 C3.5 42, 0 38.5, 0 31.5 C0 24.73, 0 17.97, 0 10.5 C0 3.5, 3.5 0, 10.5 0" stroke="none" stroke-width="0" fill="#ddd6fe"></path><path d="M10.5 0 C48.68 0, 86.85 0, 119.5 0 M10.5 0 C53.45 0, 96.4 0, 119.5 0 M119.5 0 C126.5 0, 130 3.5, 130 10.5 M119.5 0 C126.5 0, 130 3.5, 130 10.5 M130 10.5 C130 14.72, 130 18.94, 130 31.5 M130 10.5 C130 15.3, 130 20.1, 130 31.5 M130 31.5 C130 38.5, 126.5 42, 119.5 42 M130 31.5 C130 38.5, 126.5 42, 119.5 42 M119.5 42 C92.07 42, 64.64 42, 10.5 42 M119.5 42 C78.89 42, 38.28 42, 10.5 42 M10.5 42 C3.5 42, 0 38.5, 0 31.5 M10.5 42 C3.5 42, 0 38.5, 0 31.5 M0 31.5 C0 23.15, 0 14.8, 0 10.5 M0 31.5 C0 25.88, 0 20.26, 0 10.5 M0 10.5 C0 3.5, 3.5 0, 10.5 0 M0 10.5 C0 3.5, 3.5 0, 10.5 0" stroke="#6d28d9" stroke-width="3" fill="none"></path></g><g transform="translate(45 152) rotate(0 60 19)"><text x="60" y="13.9203125" font-family="Helvetica, sans-serif, Segoe UI Emoji" font-size="16px" fill="#111827" text-anchor="middle" style="white-space: pre;" direction="ltr" dominant-baseline="alphabetic">WebUI</text><text x="60" y="33.1203125" font-family="Helvetica, sans-serif, Segoe UI Emoji" font-size="16px" fill="#111827" text-anchor="middle" style="white-space: pre;" direction="ltr" dominant-baseline="alphabetic">Setup</text></g><g stroke-linecap="round" transform="translate(225 150) rotate(0 67.5 21)"><path d="M10.5 0 C35.37 0, 60.23 0, 124.5 0 C131.5 0, 135 3.5, 135 10.5 C135 14.85, 135 19.2, 135 31.5 C135 38.5, 131.5 42, 124.5 42 C79.41 42, 34.32 42, 10.5 42 C3.5 42, 0 38.5, 0 31.5 C0 27.13, 0 22.76, 0 10.5 C0 3.5, 3.5 0, 10.5 0" stroke="none" stroke-width="0" fill="#ddd6fe"></path><path d="M10.5 0 C42.96 0, 75.42 0, 124.5 0 M10.5 0 C53.33 0, 96.17 0, 124.5 0 M124.5 0 C131.5 0, 135 3.5, 135 10.5 M124.5 0 C131.5 0, 135 3.5, 135 10.5 M135 10.5 C135 16.18, 135 21.87, 135 31.5 M135 10.5 C135 15.65, 135 20.81, 135 31.5 M135 31.5 C135 38.5, 131.5 42, 124.5 42 M135 31.5 C135 38.5, 131.5 42, 124.5 42 M124.5 42 C88.75 42, 52.99 42, 10.5 42 M124.5 42 C79.08 42, 33.66 42, 10.5 42 M10.5 42 C3.5 42, 0 38.5, 0 31.5 M10.5 42 C3.5 42, 0 38.5, 0 31.5 M0 31.5 C0 27.22, 0 22.94, 0 10.5 M0 31.5 C0 26.13, 0 20.75, 0 10.5 M0 10.5 C0 3.5, 3.5 0, 10.5 0 M0 10.5 C0 3.5, 3.5 0, 10.5 0" stroke="#6d28d9" stroke-width="3" fill="none"></path></g><g transform="translate(230 152) rotate(0 62.5 19)"><text x="62.5" y="13.9203125" font-family="Helvetica, sans-serif, Segoe UI Emoji" font-size="16px" fill="#111827" text-anchor="middle" style="white-space: pre;" direction="ltr" dominant-baseline="alphabetic">msf backend</text><text x="62.5" y="33.1203125" font-family="Helvetica, sans-serif, Segoe UI Emoji" font-size="16px" fill="#111827" text-anchor="middle" style="white-space: pre;" direction="ltr" dominant-baseline="alphabetic">Generate config</text></g><g stroke-linecap="round"><g transform="translate(170 171) rotate(0 27.5 0)"><path d="M0 0 C20.5 0, 41 0, 55 0 M0 0 C16.93 0, 33.87 0, 55 0" stroke="#4c1d95" stroke-width="3" fill="none"></path></g><g transform="translate(170 171) rotate(0 27.5 0)"><path d="M31.51 8.55 C40.26 5.36, 49.02 2.18, 55 0 M31.51 8.55 C38.74 5.92, 45.97 3.28, 55 0" stroke="#4c1d95" stroke-width="3" fill="none"></path></g><g transform="translate(170 171) rotate(0 27.5 0)"><path d="M31.51 -8.55 C40.26 -5.36, 49.02 -2.18, 55 0 M31.51 -8.55 C38.74 -5.92, 45.97 -3.28, 55 0" stroke="#4c1d95" stroke-width="3" fill="none"></path></g></g><mask></mask><g transform="translate(152.5 147) rotate(0 45 10)"><text x="45" y="12.1802734375" font-family="Helvetica, sans-serif, Segoe UI Emoji" font-size="14px" fill="#4c1d95" text-anchor="middle" style="white-space: pre;" direction="ltr" dominant-baseline="alphabetic">Save</text></g><g stroke-linecap="round" transform="translate(415 140) rotate(0 75 31)"><path d="M15.5 0 C57.43 0, 99.36 0, 134.5 0 C144.83 0, 150 5.17, 150 15.5 C150 24.17, 150 32.85, 150 46.5 C150 56.83, 144.83 62, 134.5 62 C99.05 62, 63.6 62, 15.5 62 C5.17 62, 0 56.83, 0 46.5 C0 35.75, 0 25, 0 15.5 C0 5.17, 5.17 0, 15.5 0" stroke="none" stroke-width="0" fill="#ccfbf1"></path><path d="M15.5 0 C45.1 0, 74.7 0, 134.5 0 M15.5 0 C57.49 0, 99.47 0, 134.5 0 M134.5 0 C144.83 0, 150 5.17, 150 15.5 M134.5 0 C144.83 0, 150 5.17, 150 15.5 M150 15.5 C150 26.14, 150 36.78, 150 46.5 M150 15.5 C150 25.69, 150 35.87, 150 46.5 M150 46.5 C150 56.83, 144.83 62, 134.5 62 M150 46.5 C150 56.83, 144.83 62, 134.5 62 M134.5 62 C101.95 62, 69.41 62, 15.5 62 M134.5 62 C108.34 62, 82.19 62, 15.5 62 M15.5 62 C5.17 62, 0 56.83, 0 46.5 M15.5 62 C5.17 62, 0 56.83, 0 46.5 M0 46.5 C0 36.56, 0 26.62, 0 15.5 M0 46.5 C0 36.99, 0 27.48, 0 15.5 M0 15.5 C0 5.17, 5.17 0, 15.5 0 M0 15.5 C0 5.17, 5.17 0, 15.5 0" stroke="#0f766e" stroke-width="3" fill="none"></path></g><g transform="translate(421 143) rotate(0 69 28)"><text x="69" y="12.1802734375" font-family="Helvetica, sans-serif, Segoe UI Emoji" font-size="14px" fill="#111827" text-anchor="middle" style="white-space: pre;" direction="ltr" dominant-baseline="alphabetic">configs</text><text x="69" y="28.980273437500003" font-family="Helvetica, sans-serif, Segoe UI Emoji" font-size="14px" fill="#111827" text-anchor="middle" style="white-space: pre;" direction="ltr" dominant-baseline="alphabetic">mosdns / mihomo</text><text x="69" y="45.7802734375" font-family="Helvetica, sans-serif, Segoe UI Emoji" font-size="14px" fill="#111827" text-anchor="middle" style="white-space: pre;" direction="ltr" dominant-baseline="alphabetic">network.nft</text></g><g stroke-linecap="round"><g transform="translate(360 171) rotate(0 27.5 0)"><path d="M0 0 C18.42 0, 36.85 0, 55 0 M0 0 C15.69 0, 31.38 0, 55 0" stroke="#4c1d95" stroke-width="3" fill="none"></path></g><g transform="translate(360 171) rotate(0 27.5 0)"><path d="M31.51 8.55 C39.38 5.69, 47.25 2.82, 55 0 M31.51 8.55 C38.21 6.11, 44.91 3.67, 55 0" stroke="#4c1d95" stroke-width="3" fill="none"></path></g><g transform="translate(360 171) rotate(0 27.5 0)"><path d="M31.51 -8.55 C39.38 -5.69, 47.25 -2.82, 55 0 M31.51 -8.55 C38.21 -6.11, 44.91 -3.67, 55 0" stroke="#4c1d95" stroke-width="3" fill="none"></path></g></g><mask></mask><g transform="translate(342.5 147) rotate(0 45 10)"><text x="45" y="12.1802734375" font-family="Helvetica, sans-serif, Segoe UI Emoji" font-size="14px" fill="#4c1d95" text-anchor="middle" style="white-space: pre;" direction="ltr" dominant-baseline="alphabetic">Write</text></g><g stroke-linecap="round" transform="translate(625 140) rotate(0 75 31)"><path d="M15.5 0 C40.12 0, 64.73 0, 134.5 0 C144.83 0, 150 5.17, 150 15.5 C150 27.81, 150 40.12, 150 46.5 C150 56.83, 144.83 62, 134.5 62 C103.28 62, 72.05 62, 15.5 62 C5.17 62, 0 56.83, 0 46.5 C0 37.36, 0 28.23, 0 15.5 C0 5.17, 5.17 0, 15.5 0" stroke="none" stroke-width="0" fill="#fef3c7"></path><path d="M15.5 0 C44.17 0, 72.83 0, 134.5 0 M15.5 0 C50.32 0, 85.14 0, 134.5 0 M134.5 0 C144.83 0, 150 5.17, 150 15.5 M134.5 0 C144.83 0, 150 5.17, 150 15.5 M150 15.5 C150 22.8, 150 30.1, 150 46.5 M150 15.5 C150 22.14, 150 28.77, 150 46.5 M150 46.5 C150 56.83, 144.83 62, 134.5 62 M150 46.5 C150 56.83, 144.83 62, 134.5 62 M134.5 62 C94.92 62, 55.35 62, 15.5 62 M134.5 62 C87.46 62, 40.42 62, 15.5 62 M15.5 62 C5.17 62, 0 56.83, 0 46.5 M15.5 62 C5.17 62, 0 56.83, 0 46.5 M0 46.5 C0 37.09, 0 27.68, 0 15.5 M0 46.5 C0 34.84, 0 23.18, 0 15.5 M0 15.5 C0 5.17, 5.17 0, 15.5 0 M0 15.5 C0 5.17, 5.17 0, 15.5 0" stroke="#b45309" stroke-width="3" fill="none"></path></g><g transform="translate(631 143) rotate(0 69 28)"><text x="69" y="12.1802734375" font-family="Helvetica, sans-serif, Segoe UI Emoji" font-size="14px" fill="#111827" text-anchor="middle" style="white-space: pre;" direction="ltr" dominant-baseline="alphabetic">Services</text><text x="69" y="28.980273437500003" font-family="Helvetica, sans-serif, Segoe UI Emoji" font-size="14px" fill="#111827" text-anchor="middle" style="white-space: pre;" direction="ltr" dominant-baseline="alphabetic">MosDNS + Mihomo</text><text x="69" y="45.7802734375" font-family="Helvetica, sans-serif, Segoe UI Emoji" font-size="14px" fill="#111827" text-anchor="middle" style="white-space: pre;" direction="ltr" dominant-baseline="alphabetic">nftables</text></g><g stroke-linecap="round"><g transform="translate(565 171) rotate(0 30 0)"><path d="M0 0 C21.82 0, 43.64 0, 60 0 M0 0 C22.47 0, 44.95 0, 60 0" stroke="#4c1d95" stroke-width="3" fill="none"></path></g><g transform="translate(565 171) rotate(0 30 0)"><path d="M36.51 8.55 C45.05 5.44, 53.59 2.33, 60 0 M36.51 8.55 C45.31 5.35, 54.11 2.14, 60 0" stroke="#4c1d95" stroke-width="3" fill="none"></path></g><g transform="translate(565 171) rotate(0 30 0)"><path d="M36.51 -8.55 C45.05 -5.44, 53.59 -2.33, 60 0 M36.51 -8.55 C45.31 -5.35, 54.11 -2.14, 60 0" stroke="#4c1d95" stroke-width="3" fill="none"></path></g></g><mask></mask><g transform="translate(550 147) rotate(0 45 10)"><text x="45" y="12.1802734375" font-family="Helvetica, sans-serif, Segoe UI Emoji" font-size="14px" fill="#4c1d95" text-anchor="middle" style="white-space: pre;" direction="ltr" dominant-baseline="alphabetic">Start</text></g><g stroke-linecap="round" transform="translate(10 240) rotate(0 444.51416015625 302.7490234375)"><path d="M32 0 C203.81 0, 375.61 0, 857.03 0 C878.36 0, 889.03 10.67, 889.03 32 C889.03 144.46, 889.03 256.92, 889.03 573.5 C889.03 594.83, 878.36 605.5, 857.03 605.5 C555.44 605.5, 253.86 605.5, 32 605.5 C10.67 605.5, 0 594.83, 0 573.5 C0 437.93, 0 302.37, 0 32 C0 10.67, 10.67 0, 32 0" stroke="none" stroke-width="0" fill="#ffffff"></path><path d="M32 0 C269.38 0, 506.76 0, 857.03 0 M32 0 C315.42 0, 598.84 0, 857.03 0 M857.03 0 C878.36 0, 889.03 10.67, 889.03 32 M857.03 0 C878.36 0, 889.03 10.67, 889.03 32 M889.03 32 C889.03 153.49, 889.03 274.97, 889.03 573.5 M889.03 32 C889.03 140.34, 889.03 248.67, 889.03 573.5 M889.03 573.5 C889.03 594.83, 878.36 605.5, 857.03 605.5 M889.03 573.5 C889.03 594.83, 878.36 605.5, 857.03 605.5 M857.03 605.5 C677.66 605.5, 498.29 605.5, 32 605.5 M857.03 605.5 C549.02 605.5, 241 605.5, 32 605.5 M32 605.5 C10.67 605.5, 0 594.83, 0 573.5 M32 605.5 C10.67 605.5, 0 594.83, 0 573.5 M0 573.5 C0 395.31, 0 217.12, 0 32 M0 573.5 C0 431.37, 0 289.23, 0 32 M0 32 C0 10.67, 10.67 0, 32 0 M0 32 C0 10.67, 10.67 0, 32 0" stroke="#334155" stroke-width="2" fill="none"></path></g><g transform="translate(30 250) rotate(0 130 12)"><text x="0" y="15.660351562499999" font-family="Helvetica, sans-serif, Segoe UI Emoji" font-size="18px" fill="#111827" text-anchor="start" style="white-space: pre;" direction="ltr" dominant-baseline="alphabetic">Data plane: user traffic path</text></g><g transform="translate(30 290) rotate(0 95 11)"><text x="0" y="14.79033203125" font-family="Helvetica, sans-serif, Segoe UI Emoji" font-size="17px" fill="#1d4ed8" text-anchor="start" style="white-space: pre;" direction="ltr" dominant-baseline="alphabetic">1. DNS split</text></g><g stroke-linecap="round" transform="translate(35 330) rotate(0 60 27)"><path d="M13.5 0 C41.21 0, 68.91 0, 106.5 0 C115.5 0, 120 4.5, 120 13.5 C120 22.86, 120 32.23, 120 40.5 C120 49.5, 115.5 54, 106.5 54 C85.72 54, 64.94 54, 13.5 54 C4.5 54, 0 49.5, 0 40.5 C0 30.18, 0 19.85, 0 13.5 C0 4.5, 4.5 0, 13.5 0" stroke="none" stroke-width="0" fill="#bfdbfe"></path><path d="M13.5 0 C45.41 0, 77.33 0, 106.5 0 M13.5 0 C44.06 0, 74.62 0, 106.5 0 M106.5 0 C115.5 0, 120 4.5, 120 13.5 M106.5 0 C115.5 0, 120 4.5, 120 13.5 M120 13.5 C120 20.88, 120 28.27, 120 40.5 M120 13.5 C120 19.43, 120 25.37, 120 40.5 M120 40.5 C120 49.5, 115.5 54, 106.5 54 M120 40.5 C120 49.5, 115.5 54, 106.5 54 M106.5 54 C76.68 54, 46.86 54, 13.5 54 M106.5 54 C77.97 54, 49.45 54, 13.5 54 M13.5 54 C4.5 54, 0 49.5, 0 40.5 M13.5 54 C4.5 54, 0 49.5, 0 40.5 M0 40.5 C0 30.99, 0 21.47, 0 13.5 M0 40.5 C0 32.52, 0 24.54, 0 13.5 M0 13.5 C0 4.5, 4.5 0, 13.5 0 M0 13.5 C0 4.5, 4.5 0, 13.5 0" stroke="#1d4ed8" stroke-width="3" fill="none"></path></g><g transform="translate(41 337) rotate(0 54 20)"><text x="54" y="14.79033203125" font-family="Helvetica, sans-serif, Segoe UI Emoji" font-size="17px" fill="#111827" text-anchor="middle" style="white-space: pre;" direction="ltr" dominant-baseline="alphabetic">LAN clients</text></g><g stroke-linecap="round" transform="translate(205 330) rotate(0 62.5 27)"><path d="M13.5 0 C51.52 0, 89.53 0, 111.5 0 C120.5 0, 125 4.5, 125 13.5 C125 20.23, 125 26.97, 125 40.5 C125 49.5, 120.5 54, 111.5 54 C90.56 54, 69.63 54, 13.5 54 C4.5 54, 0 49.5, 0 40.5 C0 31.04, 0 21.58, 0 13.5 C0 4.5, 4.5 0, 13.5 0" stroke="none" stroke-width="0" fill="#fed7aa"></path><path d="M13.5 0 C39.46 0, 65.42 0, 111.5 0 M13.5 0 C39.92 0, 66.34 0, 111.5 0 M111.5 0 C120.5 0, 125 4.5, 125 13.5 M111.5 0 C120.5 0, 125 4.5, 125 13.5 M125 13.5 C125 23.03, 125 32.56, 125 40.5 M125 13.5 C125 19.64, 125 25.78, 125 40.5 M125 40.5 C125 49.5, 120.5 54, 111.5 54 M125 40.5 C125 49.5, 120.5 54, 111.5 54 M111.5 54 C84.49 54, 57.47 54, 13.5 54 M111.5 54 C80.25 54, 49 54, 13.5 54 M13.5 54 C4.5 54, 0 49.5, 0 40.5 M13.5 54 C4.5 54, 0 49.5, 0 40.5 M0 40.5 C0 31.17, 0 21.83, 0 13.5 M0 40.5 C0 32.95, 0 25.39, 0 13.5 M0 13.5 C0 4.5, 4.5 0, 13.5 0 M0 13.5 C0 4.5, 4.5 0, 13.5 0" stroke="#c2410c" stroke-width="3" fill="none"></path></g><g transform="translate(211 335) rotate(0 56.5 22)"><text x="56.5" y="12.1802734375" font-family="Helvetica, sans-serif, Segoe UI Emoji" font-size="14px" fill="#111827" text-anchor="middle" style="white-space: pre;" direction="ltr" dominant-baseline="alphabetic">Main router</text><text x="56.5" y="28.980273437500003" font-family="Helvetica, sans-serif, Segoe UI Emoji" font-size="14px" fill="#111827" text-anchor="middle" style="white-space: pre;" direction="ltr" dominant-baseline="alphabetic">DHCP DNS -&gt; msf</text></g><g stroke-linecap="round"><g transform="translate(155 357) rotate(0 25 0)"><path d="M0 0 C11.78 0, 23.55 0, 50 0 M0 0 C10.7 0, 21.4 0, 50 0" stroke="#1d4ed8" stroke-width="3" fill="none"></path></g><g transform="translate(155 357) rotate(0 25 0)"><path d="M26.51 8.55 C32.04 6.54, 37.57 4.52, 50 0 M26.51 8.55 C31.54 6.72, 36.56 4.89, 50 0" stroke="#1d4ed8" stroke-width="3" fill="none"></path></g><g transform="translate(155 357) rotate(0 25 0)"><path d="M26.51 -8.55 C32.04 -6.54, 37.57 -4.52, 50 0 M26.51 -8.55 C31.54 -6.72, 36.56 -4.89, 50 0" stroke="#1d4ed8" stroke-width="3" fill="none"></path></g></g><mask></mask><g transform="translate(135 333) rotate(0 45 10)"><text x="45" y="12.1802734375" font-family="Helvetica, sans-serif, Segoe UI Emoji" font-size="14px" fill="#1d4ed8" text-anchor="middle" style="white-space: pre;" direction="ltr" dominant-baseline="alphabetic">DNS</text></g><g stroke-linecap="round" transform="translate(380 320) rotate(0 67.5 37)"><path d="M18.5 0 C45.42 0, 72.33 0, 116.5 0 C128.83 0, 135 6.17, 135 18.5 C135 27.34, 135 36.18, 135 55.5 C135 67.83, 128.83 74, 116.5 74 C82.42 74, 48.34 74, 18.5 74 C6.17 74, 0 67.83, 0 55.5 C0 42.43, 0 29.35, 0 18.5 C0 6.17, 6.17 0, 18.5 0" stroke="none" stroke-width="0" fill="#e0e7ff"></path><path d="M18.5 0 C46.27 0, 74.05 0, 116.5 0 M18.5 0 C41.09 0, 63.68 0, 116.5 0 M116.5 0 C128.83 0, 135 6.17, 135 18.5 M116.5 0 C128.83 0, 135 6.17, 135 18.5 M135 18.5 C135 28.55, 135 38.6, 135 55.5 M135 18.5 C135 28.14, 135 37.79, 135 55.5 M135 55.5 C135 67.83, 128.83 74, 116.5 74 M135 55.5 C135 67.83, 128.83 74, 116.5 74 M116.5 74 C87.56 74, 58.62 74, 18.5 74 M116.5 74 C88.62 74, 60.75 74, 18.5 74 M18.5 74 C6.17 74, 0 67.83, 0 55.5 M18.5 74 C6.17 74, 0 67.83, 0 55.5 M0 55.5 C0 45.96, 0 36.42, 0 18.5 M0 55.5 C0 40.81, 0 26.11, 0 18.5 M0 18.5 C0 6.17, 6.17 0, 18.5 0 M0 18.5 C0 6.17, 6.17 0, 18.5 0" stroke="#4338ca" stroke-width="3" fill="none"></path></g><g transform="translate(386 326) rotate(0 61.5 31)"><text x="61.5" y="13.05029296875" font-family="Helvetica, sans-serif, Segoe UI Emoji" font-size="15px" fill="#111827" text-anchor="middle" style="white-space: pre;" direction="ltr" dominant-baseline="alphabetic">MosDNS :53</text><text x="61.5" y="31.05029296875" font-family="Helvetica, sans-serif, Segoe UI Emoji" font-size="15px" fill="#111827" text-anchor="middle" style="white-space: pre;" direction="ltr" dominant-baseline="alphabetic">Rules / cache</text><text x="61.5" y="49.05029296875" font-family="Helvetica, sans-serif, Segoe UI Emoji" font-size="15px" fill="#111827" text-anchor="middle" style="white-space: pre;" direction="ltr" dominant-baseline="alphabetic">client_ip</text></g><g stroke-linecap="round"><g transform="translate(330 357) rotate(0 25 0)"><path d="M0 0 C11.22 0, 22.44 0, 50 0 M0 0 C10 0, 20.01 0, 50 0" stroke="#1d4ed8" stroke-width="3" fill="none"></path></g><g transform="translate(330 357) rotate(0 25 0)"><path d="M26.51 8.55 C31.78 6.63, 37.05 4.71, 50 0 M26.51 8.55 C31.21 6.84, 35.91 5.13, 50 0" stroke="#1d4ed8" stroke-width="3" fill="none"></path></g><g transform="translate(330 357) rotate(0 25 0)"><path d="M26.51 -8.55 C31.78 -6.63, 37.05 -4.71, 50 0 M26.51 -8.55 C31.21 -6.84, 35.91 -5.13, 50 0" stroke="#1d4ed8" stroke-width="3" fill="none"></path></g></g><mask></mask><g transform="translate(310 333) rotate(0 45 10)"><text x="45" y="12.1802734375" font-family="Helvetica, sans-serif, Segoe UI Emoji" font-size="14px" fill="#1d4ed8" text-anchor="middle" style="white-space: pre;" direction="ltr" dominant-baseline="alphabetic">To msf</text></g><g stroke-linecap="round" transform="translate(565 315) rotate(0 60 42)"><path d="M76.25 10.75 C83.76 16.41, 91.26 22.07, 104.75 32.25 C120 43, 120 43, 104.75 53.75 C95.91 59.8, 87.07 65.85, 76.25 73.25 C61 84, 61 84, 45.75 73.25 C33.91 65.68, 22.07 58.11, 15.25 53.75 C0 43, 0 43, 15.25 32.25 C25.62 24.94, 36 17.62, 45.75 10.75 C61 0, 61 0, 76.25 10.75" stroke="none" stroke-width="0" fill="#fef3c7"></path><path d="M76.25 10.75 C83.71 16.38, 91.17 22, 104.75 32.25 M76.25 10.75 C82.41 15.4, 88.58 20.05, 104.75 32.25 M104.75 32.25 C120 43, 120 43, 104.75 53.75 M104.75 32.25 C120 43, 120 43, 104.75 53.75 M104.75 53.75 C98.93 57.73, 93.1 61.72, 76.25 73.25 M104.75 53.75 C96.32 59.51, 87.9 65.28, 76.25 73.25 M76.25 73.25 C61 84, 61 84, 45.75 73.25 M76.25 73.25 C61 84, 61 84, 45.75 73.25 M45.75 73.25 C37.49 67.97, 29.23 62.69, 15.25 53.75 M45.75 73.25 C35.34 66.6, 24.93 59.94, 15.25 53.75 M15.25 53.75 C0 43, 0 43, 15.25 32.25 M15.25 53.75 C0 43, 0 43, 15.25 32.25 M15.25 32.25 C26.08 24.61, 36.91 16.98, 45.75 10.75 M15.25 32.25 C21.58 27.78, 27.92 23.32, 45.75 10.75 M45.75 10.75 C61 0, 61 0, 76.25 10.75 M45.75 10.75 C61 0, 61 0, 76.25 10.75" stroke="#b45309" stroke-width="3" fill="none"></path></g><g transform="translate(585 334) rotate(0 40 23)"><text x="40" y="13.9203125" font-family="Helvetica, sans-serif, Segoe UI Emoji" font-size="16px" fill="#111827" text-anchor="middle" style="white-space: pre;" direction="ltr" dominant-baseline="alphabetic">Needs</text><text x="40" y="33.1203125" font-family="Helvetica, sans-serif, Segoe UI Emoji" font-size="16px" fill="#111827" text-anchor="middle" style="white-space: pre;" direction="ltr" dominant-baseline="alphabetic">proxy?</text></g><g stroke-linecap="round"><g transform="translate(515 357) rotate(0 25 0)"><path d="M0 0 C19.31 0, 38.62 0, 50 0 M0 0 C19.26 0, 38.51 0, 50 0" stroke="#4338ca" stroke-width="3" fill="none"></path></g><g transform="translate(515 357) rotate(0 25 0)"><path d="M26.51 8.55 C35.58 5.25, 44.65 1.95, 50 0 M26.51 8.55 C35.56 5.26, 44.6 1.96, 50 0" stroke="#4338ca" stroke-width="3" fill="none"></path></g><g transform="translate(515 357) rotate(0 25 0)"><path d="M26.51 -8.55 C35.58 -5.25, 44.65 -1.95, 50 0 M26.51 -8.55 C35.56 -5.26, 44.6 -1.96, 50 0" stroke="#4338ca" stroke-width="3" fill="none"></path></g></g><mask></mask><g transform="translate(495 333) rotate(0 45 10)"><text x="45" y="12.1802734375" font-family="Helvetica, sans-serif, Segoe UI Emoji" font-size="14px" fill="#4338ca" text-anchor="middle" style="white-space: pre;" direction="ltr" dominant-baseline="alphabetic">Decide</text></g><g stroke-linecap="round" transform="translate(705 295) rotate(0 47.5 24)"><path d="M12 0 C35.47 0, 58.94 0, 83 0 C91 0, 95 4, 95 12 C95 20.68, 95 29.37, 95 36 C95 44, 91 48, 83 48 C57.35 48, 31.7 48, 12 48 C4 48, 0 44, 0 36 C0 27.38, 0 18.76, 0 12 C0 4, 4 0, 12 0" stroke="none" stroke-width="0" fill="#bbf7d0"></path><path d="M12 0 C38.72 0, 65.43 0, 83 0 M12 0 C27.99 0, 43.98 0, 83 0 M83 0 C91 0, 95 4, 95 12 M83 0 C91 0, 95 4, 95 12 M95 12 C95 21.06, 95 30.13, 95 36 M95 12 C95 18.74, 95 25.48, 95 36 M95 36 C95 44, 91 48, 83 48 M95 36 C95 44, 91 48, 83 48 M83 48 C63.22 48, 43.43 48, 12 48 M83 48 C55.47 48, 27.95 48, 12 48 M12 48 C4 48, 0 44, 0 36 M12 48 C4 48, 0 44, 0 36 M0 36 C0 27.26, 0 18.52, 0 12 M0 36 C0 27.36, 0 18.73, 0 12 M0 12 C0 4, 4 0, 12 0 M0 12 C0 4, 4 0, 12 0" stroke="#047857" stroke-width="3" fill="none"></path></g><g transform="translate(710 299) rotate(0 42.5 20)"><text x="42.5" y="12.1802734375" font-family="Helvetica, sans-serif, Segoe UI Emoji" font-size="14px" fill="#064e3b" text-anchor="middle" style="white-space: pre;" direction="ltr" dominant-baseline="alphabetic">Real IP</text><text x="42.5" y="28.980273437500003" font-family="Helvetica, sans-serif, Segoe UI Emoji" font-size="14px" fill="#064e3b" text-anchor="middle" style="white-space: pre;" direction="ltr" dominant-baseline="alphabetic">Direct</text></g><g stroke-linecap="round"><g transform="translate(685 340) rotate(0 10 -10)"><path d="M0 0 C7.95 -7.95, 15.91 -15.91, 20 -20 M0 0 C5.35 -5.35, 10.71 -10.71, 20 -20" stroke="#047857" stroke-width="3" fill="none"></path></g><g transform="translate(685 340) rotate(0 10 -10)"><path d="M14.02 -7.18 C16.4 -12.28, 18.78 -17.38, 20 -20 M14.02 -7.18 C15.62 -10.61, 17.22 -14.04, 20 -20" stroke="#047857" stroke-width="3" fill="none"></path></g><g transform="translate(685 340) rotate(0 10 -10)"><path d="M7.18 -14.02 C12.28 -16.4, 17.38 -18.78, 20 -20 M7.18 -14.02 C10.61 -15.62, 14.04 -17.22, 20 -20" stroke="#047857" stroke-width="3" fill="none"></path></g></g><mask></mask><g transform="translate(650 296) rotate(0 45 10)"><text x="45" y="12.1802734375" font-family="Helvetica, sans-serif, Segoe UI Emoji" font-size="14px" fill="#047857" text-anchor="middle" style="white-space: pre;" direction="ltr" dominant-baseline="alphabetic">No</text></g><g stroke-linecap="round" transform="translate(705 370) rotate(0 47.5 24)"><path d="M12 0 C29.95 0, 47.9 0, 83 0 C91 0, 95 4, 95 12 C95 19.01, 95 26.02, 95 36 C95 44, 91 48, 83 48 C62.14 48, 41.28 48, 12 48 C4 48, 0 44, 0 36 C0 29.79, 0 23.57, 0 12 C0 4, 4 0, 12 0" stroke="none" stroke-width="0" fill="#fecaca"></path><path d="M12 0 C26.47 0, 40.93 0, 83 0 M12 0 C30.17 0, 48.34 0, 83 0 M83 0 C91 0, 95 4, 95 12 M83 0 C91 0, 95 4, 95 12 M95 12 C95 17.24, 95 22.47, 95 36 M95 12 C95 20.75, 95 29.5, 95 36 M95 36 C95 44, 91 48, 83 48 M95 36 C95 44, 91 48, 83 48 M83 48 C54.92 48, 26.84 48, 12 48 M83 48 C60.12 48, 37.24 48, 12 48 M12 48 C4 48, 0 44, 0 36 M12 48 C4 48, 0 44, 0 36 M0 36 C0 30.93, 0 25.86, 0 12 M0 36 C0 28.75, 0 21.5, 0 12 M0 12 C0 4, 4 0, 12 0 M0 12 C0 4, 4 0, 12 0" stroke="#b91c1c" stroke-width="3" fill="none"></path></g><g transform="translate(710 374) rotate(0 42.5 20)"><text x="42.5" y="12.1802734375" font-family="Helvetica, sans-serif, Segoe UI Emoji" font-size="14px" fill="#7f1d1d" text-anchor="middle" style="white-space: pre;" direction="ltr" dominant-baseline="alphabetic">FakeIP</text><text x="42.5" y="28.980273437500003" font-family="Helvetica, sans-serif, Segoe UI Emoji" font-size="14px" fill="#7f1d1d" text-anchor="middle" style="white-space: pre;" direction="ltr" dominant-baseline="alphabetic">Proxy</text></g><g stroke-linecap="round"><g transform="translate(685 375) rotate(0 10 10)"><path d="M0 0 C6.71 6.71, 13.41 13.41, 20 20 M0 0 C6.92 6.92, 13.84 13.84, 20 20" stroke="#b91c1c" stroke-width="3" fill="none"></path></g><g transform="translate(685 375) rotate(0 10 10)"><path d="M7.18 14.02 C11.48 16.03, 15.78 18.03, 20 20 M7.18 14.02 C11.62 16.09, 16.05 18.16, 20 20" stroke="#b91c1c" stroke-width="3" fill="none"></path></g><g transform="translate(685 375) rotate(0 10 10)"><path d="M14.02 7.18 C16.03 11.48, 18.03 15.78, 20 20 M14.02 7.18 C16.09 11.62, 18.16 16.05, 20 20" stroke="#b91c1c" stroke-width="3" fill="none"></path></g></g><mask></mask><g transform="translate(650 351) rotate(0 45 10)"><text x="45" y="12.1802734375" font-family="Helvetica, sans-serif, Segoe UI Emoji" font-size="14px" fill="#b91c1c" text-anchor="middle" style="white-space: pre;" direction="ltr" dominant-baseline="alphabetic">Yes</text></g><g stroke-linecap="round" transform="translate(35 420) rotate(0 280 18)"><path d="M9 0 C121.03 0, 233.07 0, 551 0 C557 0, 560 3, 560 9 C560 16.19, 560 23.39, 560 27 C560 33, 557 36, 551 36 C435.94 36, 320.89 36, 9 36 C3 36, 0 33, 0 27 C0 21.82, 0 16.64, 0 9 C0 3, 3 0, 9 0" stroke="none" stroke-width="0" fill="#eff6ff"></path><path d="M9 0 C182.8 0, 356.6 0, 551 0 M9 0 C175.24 0, 341.49 0, 551 0 M551 0 C557 0, 560 3, 560 9 M551 0 C557 0, 560 3, 560 9 M560 9 C560 15.34, 560 21.68, 560 27 M560 9 C560 14.32, 560 19.64, 560 27 M560 27 C560 33, 557 36, 551 36 M560 27 C560 33, 557 36, 551 36 M551 36 C389.54 36, 228.07 36, 9 36 M551 36 C419.11 36, 287.21 36, 9 36 M9 36 C3 36, 0 33, 0 27 M9 36 C3 36, 0 33, 0 27 M0 27 C0 22.98, 0 18.96, 0 9 M0 27 C0 21.91, 0 16.82, 0 9 M0 9 C0 3, 3 0, 9 0 M0 9 C0 3, 3 0, 9 0" stroke="#1d4ed8" stroke-width="2" fill="none"></path></g><g transform="translate(45 426) rotate(0 270 12)"><text x="270" y="12.1802734375" font-family="Helvetica, sans-serif, Segoe UI Emoji" font-size="14px" fill="#1e3a8a" text-anchor="middle" style="white-space: pre;" direction="ltr" dominant-baseline="alphabetic">DNS decides only: real IP or FakeIP 28.0.0.0/8 / f2b0::/18</text></g><g transform="translate(30 490) rotate(0 157.5 11)"><text x="0" y="14.79033203125" font-family="Helvetica, sans-serif, Segoe UI Emoji" font-size="17px" fill="#111827" text-anchor="start" style="white-space: pre;" direction="ltr" dominant-baseline="alphabetic">2. Traffic follows target IP</text></g><g stroke-linecap="round" transform="translate(35 540) rotate(0 65 29)"><path d="M14.5 0 C50.99 0, 87.48 0, 115.5 0 C125.17 0, 130 4.83, 130 14.5 C130 24.92, 130 35.33, 130 43.5 C130 53.17, 125.17 58, 115.5 58 C95.17 58, 74.83 58, 14.5 58 C4.83 58, 0 53.17, 0 43.5 C0 37.07, 0 30.63, 0 14.5 C0 4.83, 4.83 0, 14.5 0" stroke="none" stroke-width="0" fill="#bfdbfe"></path><path d="M14.5 0 C52.64 0, 90.79 0, 115.5 0 M14.5 0 C42.86 0, 71.23 0, 115.5 0 M115.5 0 C125.17 0, 130 4.83, 130 14.5 M115.5 0 C125.17 0, 130 4.83, 130 14.5 M130 14.5 C130 22.58, 130 30.66, 130 43.5 M130 14.5 C130 25.74, 130 36.99, 130 43.5 M130 43.5 C130 53.17, 125.17 58, 115.5 58 M130 43.5 C130 53.17, 125.17 58, 115.5 58 M115.5 58 C78.73 58, 41.95 58, 14.5 58 M115.5 58 C79.16 58, 42.81 58, 14.5 58 M14.5 58 C4.83 58, 0 53.17, 0 43.5 M14.5 58 C4.83 58, 0 53.17, 0 43.5 M0 43.5 C0 33.91, 0 24.33, 0 14.5 M0 43.5 C0 37.35, 0 31.2, 0 14.5 M0 14.5 C0 4.83, 4.83 0, 14.5 0 M0 14.5 C0 4.83, 4.83 0, 14.5 0" stroke="#1d4ed8" stroke-width="3" fill="none"></path></g><g transform="translate(41 546) rotate(0 59 23)"><text x="59" y="13.05029296875" font-family="Helvetica, sans-serif, Segoe UI Emoji" font-size="15px" fill="#111827" text-anchor="middle" style="white-space: pre;" direction="ltr" dominant-baseline="alphabetic">Client visits</text><text x="59" y="31.05029296875" font-family="Helvetica, sans-serif, Segoe UI Emoji" font-size="15px" fill="#111827" text-anchor="middle" style="white-space: pre;" direction="ltr" dominant-baseline="alphabetic">resolved IP</text></g><g stroke-linecap="round" transform="translate(220 540) rotate(0 70 29)"><path d="M14.5 0 C42.39 0, 70.29 0, 125.5 0 C135.17 0, 140 4.83, 140 14.5 C140 21.77, 140 29.03, 140 43.5 C140 53.17, 135.17 58, 125.5 58 C95.55 58, 65.61 58, 14.5 58 C4.83 58, 0 53.17, 0 43.5 C0 32.77, 0 22.04, 0 14.5 C0 4.83, 4.83 0, 14.5 0" stroke="none" stroke-width="0" fill="#fed7aa"></path><path d="M14.5 0 C55.64 0, 96.78 0, 125.5 0 M14.5 0 C51.22 0, 87.94 0, 125.5 0 M125.5 0 C135.17 0, 140 4.83, 140 14.5 M125.5 0 C135.17 0, 140 4.83, 140 14.5 M140 14.5 C140 20.71, 140 26.91, 140 43.5 M140 14.5 C140 22.62, 140 30.74, 140 43.5 M140 43.5 C140 53.17, 135.17 58, 125.5 58 M140 43.5 C140 53.17, 135.17 58, 125.5 58 M125.5 58 C85.78 58, 46.06 58, 14.5 58 M125.5 58 C96.77 58, 68.04 58, 14.5 58 M14.5 58 C4.83 58, 0 53.17, 0 43.5 M14.5 58 C4.83 58, 0 53.17, 0 43.5 M0 43.5 C0 34.97, 0 26.44, 0 14.5 M0 43.5 C0 33.01, 0 22.51, 0 14.5 M0 14.5 C0 4.83, 4.83 0, 14.5 0 M0 14.5 C0 4.83, 4.83 0, 14.5 0" stroke="#c2410c" stroke-width="3" fill="none"></path></g><g transform="translate(226 546) rotate(0 64 23)"><text x="64" y="13.05029296875" font-family="Helvetica, sans-serif, Segoe UI Emoji" font-size="15px" fill="#111827" text-anchor="middle" style="white-space: pre;" direction="ltr" dominant-baseline="alphabetic">Main router</text><text x="64" y="31.05029296875" font-family="Helvetica, sans-serif, Segoe UI Emoji" font-size="15px" fill="#111827" text-anchor="middle" style="white-space: pre;" direction="ltr" dominant-baseline="alphabetic">Check IP</text></g><g stroke-linecap="round"><g transform="translate(165 569) rotate(0 27.5 0)"><path d="M0 0 C12 0, 23.99 0, 55 0 M0 0 C20.06 0, 40.11 0, 55 0" stroke="#111827" stroke-width="3" fill="none"></path></g><g transform="translate(165 569) rotate(0 27.5 0)"><path d="M31.51 8.55 C36.63 6.69, 41.76 4.82, 55 0 M31.51 8.55 C40.07 5.43, 48.64 2.31, 55 0" stroke="#111827" stroke-width="3" fill="none"></path></g><g transform="translate(165 569) rotate(0 27.5 0)"><path d="M31.51 -8.55 C36.63 -6.69, 41.76 -4.82, 55 0 M31.51 -8.55 C40.07 -5.43, 48.64 -2.31, 55 0" stroke="#111827" stroke-width="3" fill="none"></path></g></g><mask></mask><g transform="translate(147.5 545) rotate(0 45 10)"><text x="45" y="12.1802734375" font-family="Helvetica, sans-serif, Segoe UI Emoji" font-size="14px" fill="#111827" text-anchor="middle" style="white-space: pre;" direction="ltr" dominant-baseline="alphabetic">Traffic</text></g><g transform="translate(405 505) rotate(0 105 12)"><text x="0" y="13.9203125" font-family="Helvetica, sans-serif, Segoe UI Emoji" font-size="16px" fill="#065f46" text-anchor="start" style="white-space: pre;" direction="ltr" dominant-baseline="alphabetic">Real IP: direct route</text></g><g stroke-linecap="round" transform="translate(415 540) rotate(0 57.5 27)"><path d="M13.5 0 C47.27 0, 81.05 0, 101.5 0 C110.5 0, 115 4.5, 115 13.5 C115 20.43, 115 27.36, 115 40.5 C115 49.5, 110.5 54, 101.5 54 C80.25 54, 59 54, 13.5 54 C4.5 54, 0 49.5, 0 40.5 C0 29.78, 0 19.05, 0 13.5 C0 4.5, 4.5 0, 13.5 0" stroke="none" stroke-width="0" fill="#bbf7d0"></path><path d="M13.5 0 C37.33 0, 61.15 0, 101.5 0 M13.5 0 C43.53 0, 73.56 0, 101.5 0 M101.5 0 C110.5 0, 115 4.5, 115 13.5 M101.5 0 C110.5 0, 115 4.5, 115 13.5 M115 13.5 C115 23.09, 115 32.68, 115 40.5 M115 13.5 C115 19.11, 115 24.71, 115 40.5 M115 40.5 C115 49.5, 110.5 54, 101.5 54 M115 40.5 C115 49.5, 110.5 54, 101.5 54 M101.5 54 C78.32 54, 55.15 54, 13.5 54 M101.5 54 C79.47 54, 57.44 54, 13.5 54 M13.5 54 C4.5 54, 0 49.5, 0 40.5 M13.5 54 C4.5 54, 0 49.5, 0 40.5 M0 40.5 C0 30.02, 0 19.54, 0 13.5 M0 40.5 C0 33.74, 0 26.98, 0 13.5 M0 13.5 C0 4.5, 4.5 0, 13.5 0 M0 13.5 C0 4.5, 4.5 0, 13.5 0" stroke="#047857" stroke-width="3" fill="none"></path></g><g transform="translate(421 547) rotate(0 51.5 20)"><text x="51.5" y="13.9203125" font-family="Helvetica, sans-serif, Segoe UI Emoji" font-size="16px" fill="#064e3b" text-anchor="middle" style="white-space: pre;" direction="ltr" dominant-baseline="alphabetic">ISP egress</text></g><g stroke-linecap="round"><g transform="translate(360 560) rotate(0 27.5 0)"><path d="M0 0 C20.55 0, 41.11 0, 55 0 M0 0 C20.04 0, 40.07 0, 55 0" stroke="#047857" stroke-width="3" fill="none"></path></g><g transform="translate(360 560) rotate(0 27.5 0)"><path d="M31.51 8.55 C40.29 5.36, 49.06 2.16, 55 0 M31.51 8.55 C40.07 5.44, 48.62 2.32, 55 0" stroke="#047857" stroke-width="3" fill="none"></path></g><g transform="translate(360 560) rotate(0 27.5 0)"><path d="M31.51 -8.55 C40.29 -5.36, 49.06 -2.16, 55 0 M31.51 -8.55 C40.07 -5.44, 48.62 -2.32, 55 0" stroke="#047857" stroke-width="3" fill="none"></path></g></g><mask></mask><g transform="translate(342.5 536) rotate(0 45 10)"><text x="45" y="12.1802734375" font-family="Helvetica, sans-serif, Segoe UI Emoji" font-size="14px" fill="#047857" text-anchor="middle" style="white-space: pre;" direction="ltr" dominant-baseline="alphabetic">Real IP</text></g><g stroke-linecap="round" transform="translate(585 540) rotate(0 60 27)"><path d="M13.5 0 C32.22 0, 50.95 0, 106.5 0 C115.5 0, 120 4.5, 120 13.5 C120 19.49, 120 25.48, 120 40.5 C120 49.5, 115.5 54, 106.5 54 C84.89 54, 63.28 54, 13.5 54 C4.5 54, 0 49.5, 0 40.5 C0 33.84, 0 27.17, 0 13.5 C0 4.5, 4.5 0, 13.5 0" stroke="none" stroke-width="0" fill="#dcfce7"></path><path d="M13.5 0 C39.41 0, 65.33 0, 106.5 0 M13.5 0 C49.56 0, 85.61 0, 106.5 0 M106.5 0 C115.5 0, 120 4.5, 120 13.5 M106.5 0 C115.5 0, 120 4.5, 120 13.5 M120 13.5 C120 23.33, 120 33.16, 120 40.5 M120 13.5 C120 23.22, 120 32.93, 120 40.5 M120 40.5 C120 49.5, 115.5 54, 106.5 54 M120 40.5 C120 49.5, 115.5 54, 106.5 54 M106.5 54 C75.76 54, 45.02 54, 13.5 54 M106.5 54 C86.78 54, 67.07 54, 13.5 54 M13.5 54 C4.5 54, 0 49.5, 0 40.5 M13.5 54 C4.5 54, 0 49.5, 0 40.5 M0 40.5 C0 30.74, 0 20.99, 0 13.5 M0 40.5 C0 32.81, 0 25.12, 0 13.5 M0 13.5 C0 4.5, 4.5 0, 13.5 0 M0 13.5 C0 4.5, 4.5 0, 13.5 0" stroke="#047857" stroke-width="3" fill="none"></path></g><g transform="translate(591 546) rotate(0 54 21)"><text x="54" y="12.1802734375" font-family="Helvetica, sans-serif, Segoe UI Emoji" font-size="14px" fill="#064e3b" text-anchor="middle" style="white-space: pre;" direction="ltr" dominant-baseline="alphabetic">CN sites</text><text x="54" y="28.980273437500003" font-family="Helvetica, sans-serif, Segoe UI Emoji" font-size="14px" fill="#064e3b" text-anchor="middle" style="white-space: pre;" direction="ltr" dominant-baseline="alphabetic">Direct access</text></g><g stroke-linecap="round"><g transform="translate(530 567) rotate(0 27.5 0)"><path d="M0 0 C11.77 0, 23.54 0, 55 0 M0 0 C15.4 0, 30.8 0, 55 0" stroke="#047857" stroke-width="3" fill="none"></path></g><g transform="translate(530 567) rotate(0 27.5 0)"><path d="M31.51 8.55 C36.53 6.72, 41.56 4.89, 55 0 M31.51 8.55 C38.09 6.16, 44.66 3.76, 55 0" stroke="#047857" stroke-width="3" fill="none"></path></g><g transform="translate(530 567) rotate(0 27.5 0)"><path d="M31.51 -8.55 C36.53 -6.72, 41.56 -4.89, 55 0 M31.51 -8.55 C38.09 -6.16, 44.66 -3.76, 55 0" stroke="#047857" stroke-width="3" fill="none"></path></g></g><mask></mask><g transform="translate(405 625) rotate(0 150 12)"><text x="0" y="13.9203125" font-family="Helvetica, sans-serif, Segoe UI Emoji" font-size="16px" fill="#991b1b" text-anchor="start" style="white-space: pre;" direction="ltr" dominant-baseline="alphabetic">FakeIP: route to msf proxy</text></g><g stroke-linecap="round" transform="translate(415 660) rotate(0 62.5 34)"><path d="M17 0 C50.67 0, 84.34 0, 108 0 C119.33 0, 125 5.67, 125 17 C125 30, 125 42.99, 125 51 C125 62.33, 119.33 68, 108 68 C84.92 68, 61.83 68, 17 68 C5.67 68, 0 62.33, 0 51 C0 40.17, 0 29.34, 0 17 C0 5.67, 5.67 0, 17 0" stroke="none" stroke-width="0" fill="#ccfbf1"></path><path d="M17 0 C52.99 0, 88.98 0, 108 0 M17 0 C46.33 0, 75.65 0, 108 0 M108 0 C119.33 0, 125 5.67, 125 17 M108 0 C119.33 0, 125 5.67, 125 17 M125 17 C125 24.19, 125 31.37, 125 51 M125 17 C125 27.27, 125 37.54, 125 51 M125 51 C125 62.33, 119.33 68, 108 68 M125 51 C125 62.33, 119.33 68, 108 68 M108 68 C84.99 68, 61.99 68, 17 68 M108 68 C73.59 68, 39.17 68, 17 68 M17 68 C5.67 68, 0 62.33, 0 51 M17 68 C5.67 68, 0 62.33, 0 51 M0 51 C0 41.01, 0 31.02, 0 17 M0 51 C0 42.48, 0 33.96, 0 17 M0 17 C0 5.67, 5.67 0, 17 0 M0 17 C0 5.67, 5.67 0, 17 0" stroke="#0f766e" stroke-width="3" fill="none"></path></g><g transform="translate(421 666) rotate(0 56.5 28)"><text x="56.5" y="11.31025390625" font-family="Helvetica, sans-serif, Segoe UI Emoji" font-size="13px" fill="#134e4a" text-anchor="middle" style="white-space: pre;" direction="ltr" dominant-baseline="alphabetic">msf nftables</text><text x="56.5" y="26.91025390625" font-family="Helvetica, sans-serif, Segoe UI Emoji" font-size="13px" fill="#134e4a" text-anchor="middle" style="white-space: pre;" direction="ltr" dominant-baseline="alphabetic">TProxy 7896</text><text x="56.5" y="42.51025390625" font-family="Helvetica, sans-serif, Segoe UI Emoji" font-size="13px" fill="#134e4a" text-anchor="middle" style="white-space: pre;" direction="ltr" dominant-baseline="alphabetic">Redirect 7877</text></g><g stroke-linecap="round"><g transform="translate(360 586) rotate(0 27.5 54)"><path d="M0 0 C6.8 0, 13.59 0, 30 0 M0 0 C6.24 0, 12.48 0, 30 0 M30 0 C30 38.65, 30 77.29, 30 108 M30 0 C30 27.96, 30 55.91, 30 108 M30 108 C37.1 108, 44.2 108, 55 108 M30 108 C37.76 108, 45.51 108, 55 108" stroke="#b91c1c" stroke-width="3" fill="none"></path></g><g transform="translate(360 586) rotate(0 27.5 54)"><path d="M43.25 112.28 C45.91 111.31, 48.58 110.34, 55 108 M43.25 112.28 C45.7 111.39, 48.14 110.5, 55 108" stroke="#b91c1c" stroke-width="3" fill="none"></path></g><g transform="translate(360 586) rotate(0 27.5 54)"><path d="M43.25 103.72 C45.91 104.69, 48.58 105.66, 55 108 M43.25 103.72 C45.7 104.61, 48.14 105.5, 55 108" stroke="#b91c1c" stroke-width="3" fill="none"></path></g></g><mask></mask><g transform="translate(342.5 562) rotate(0 45 10)"><text x="45" y="12.1802734375" font-family="Helvetica, sans-serif, Segoe UI Emoji" font-size="14px" fill="#b91c1c" text-anchor="middle" style="white-space: pre;" direction="ltr" dominant-baseline="alphabetic">FakeIP</text></g><g stroke-linecap="round" transform="translate(595 660) rotate(0 57.5 34)"><path d="M17 0 C46.68 0, 76.36 0, 98 0 C109.33 0, 115 5.67, 115 17 C115 28.43, 115 39.86, 115 51 C115 62.33, 109.33 68, 98 68 C79.21 68, 60.41 68, 17 68 C5.67 68, 0 62.33, 0 51 C0 38.73, 0 26.47, 0 17 C0 5.67, 5.67 0, 17 0" stroke="none" stroke-width="0" fill="#fecaca"></path><path d="M17 0 C41.13 0, 65.26 0, 98 0 M17 0 C36.71 0, 56.42 0, 98 0 M98 0 C109.33 0, 115 5.67, 115 17 M98 0 C109.33 0, 115 5.67, 115 17 M115 17 C115 24.6, 115 32.19, 115 51 M115 17 C115 26.61, 115 36.23, 115 51 M115 51 C115 62.33, 109.33 68, 98 68 M115 51 C115 62.33, 109.33 68, 98 68 M98 68 C81.26 68, 64.51 68, 17 68 M98 68 C69.87 68, 41.74 68, 17 68 M17 68 C5.67 68, 0 62.33, 0 51 M17 68 C5.67 68, 0 62.33, 0 51 M0 51 C0 43.78, 0 36.56, 0 17 M0 51 C0 40.93, 0 30.85, 0 17 M0 17 C0 5.67, 5.67 0, 17 0 M0 17 C0 5.67, 5.67 0, 17 0" stroke="#b91c1c" stroke-width="3" fill="none"></path></g><g transform="translate(601 666) rotate(0 51.5 28)"><text x="51.5" y="12.1802734375" font-family="Helvetica, sans-serif, Segoe UI Emoji" font-size="14px" fill="#7f1d1d" text-anchor="middle" style="white-space: pre;" direction="ltr" dominant-baseline="alphabetic">Mihomo</text><text x="51.5" y="28.980273437500003" font-family="Helvetica, sans-serif, Segoe UI Emoji" font-size="14px" fill="#7f1d1d" text-anchor="middle" style="white-space: pre;" direction="ltr" dominant-baseline="alphabetic">Restore domain</text><text x="51.5" y="45.7802734375" font-family="Helvetica, sans-serif, Segoe UI Emoji" font-size="14px" fill="#7f1d1d" text-anchor="middle" style="white-space: pre;" direction="ltr" dominant-baseline="alphabetic">Select node</text></g><g stroke-linecap="round"><g transform="translate(540 694) rotate(0 27.5 0)"><path d="M0 0 C21.34 0, 42.67 0, 55 0 M0 0 C19.07 0, 38.15 0, 55 0" stroke="#b91c1c" stroke-width="3" fill="none"></path></g><g transform="translate(540 694) rotate(0 27.5 0)"><path d="M31.51 8.55 C40.62 5.23, 49.73 1.92, 55 0 M31.51 8.55 C39.65 5.59, 47.8 2.62, 55 0" stroke="#b91c1c" stroke-width="3" fill="none"></path></g><g transform="translate(540 694) rotate(0 27.5 0)"><path d="M31.51 -8.55 C40.62 -5.23, 49.73 -1.92, 55 0 M31.51 -8.55 C39.65 -5.59, 47.8 -2.62, 55 0" stroke="#b91c1c" stroke-width="3" fill="none"></path></g></g><mask></mask><g stroke-linecap="round" transform="translate(745 660) rotate(0 57.5 34)"><path d="M17 0 C35.82 0, 54.64 0, 98 0 C109.33 0, 115 5.67, 115 17 C115 25.39, 115 33.78, 115 51 C115 62.33, 109.33 68, 98 68 C69.83 68, 41.66 68, 17 68 C5.67 68, 0 62.33, 0 51 C0 38.03, 0 25.06, 0 17 C0 5.67, 5.67 0, 17 0" stroke="none" stroke-width="0" fill="#ddd6fe"></path><path d="M17 0 C46.49 0, 75.98 0, 98 0 M17 0 C46.15 0, 75.29 0, 98 0 M98 0 C109.33 0, 115 5.67, 115 17 M98 0 C109.33 0, 115 5.67, 115 17 M115 17 C115 28.24, 115 39.48, 115 51 M115 17 C115 24.21, 115 31.42, 115 51 M115 51 C115 62.33, 109.33 68, 98 68 M115 51 C115 62.33, 109.33 68, 98 68 M98 68 C68.73 68, 39.47 68, 17 68 M98 68 C74.93 68, 51.87 68, 17 68 M17 68 C5.67 68, 0 62.33, 0 51 M17 68 C5.67 68, 0 62.33, 0 51 M0 51 C0 44.15, 0 37.31, 0 17 M0 51 C0 38.44, 0 25.88, 0 17 M0 17 C0 5.67, 5.67 0, 17 0 M0 17 C0 5.67, 5.67 0, 17 0" stroke="#6d28d9" stroke-width="3" fill="none"></path></g><g transform="translate(751 668) rotate(0 51.5 26)"><text x="51.5" y="13.05029296875" font-family="Helvetica, sans-serif, Segoe UI Emoji" font-size="15px" fill="#4c1d95" text-anchor="middle" style="white-space: pre;" direction="ltr" dominant-baseline="alphabetic">Proxy</text><text x="51.5" y="31.05029296875" font-family="Helvetica, sans-serif, Segoe UI Emoji" font-size="15px" fill="#4c1d95" text-anchor="middle" style="white-space: pre;" direction="ltr" dominant-baseline="alphabetic">Foreign sites</text></g><g stroke-linecap="round"><g transform="translate(710 694) rotate(0 17.5 0)"><path d="M0 0 C12.52 0, 25.05 0, 35 0 M0 0 C9.06 0, 18.12 0, 35 0" stroke="#6d28d9" stroke-width="3" fill="none"></path></g><g transform="translate(710 694) rotate(0 17.5 0)"><path d="M18.56 5.99 C24.44 3.84, 30.32 1.7, 35 0 M18.56 5.99 C22.81 4.44, 27.07 2.89, 35 0" stroke="#6d28d9" stroke-width="3" fill="none"></path></g><g transform="translate(710 694) rotate(0 17.5 0)"><path d="M18.56 -5.99 C24.44 -3.84, 30.32 -1.7, 35 0 M18.56 -5.99 C22.81 -4.44, 27.07 -2.89, 35 0" stroke="#6d28d9" stroke-width="3" fill="none"></path></g></g><mask></mask><g stroke-linecap="round" transform="translate(35 752) rotate(0 260 17)"><path d="M8.5 0 C109.49 0, 210.48 0, 511.5 0 C517.17 0, 520 2.83, 520 8.5 C520 14.98, 520 21.47, 520 25.5 C520 31.17, 517.17 34, 511.5 34 C371.35 34, 231.2 34, 8.5 34 C2.83 34, 0 31.17, 0 25.5 C0 19.15, 0 12.81, 0 8.5 C0 2.83, 2.83 0, 8.5 0" stroke="none" stroke-width="0" fill="#fff7ed"></path><path d="M8.5 0 C146.66 0, 284.81 0, 511.5 0 M8.5 0 C156.76 0, 305.03 0, 511.5 0 M511.5 0 C517.17 0, 520 2.83, 520 8.5 M511.5 0 C517.17 0, 520 2.83, 520 8.5 M520 8.5 C520 14.41, 520 20.32, 520 25.5 M520 8.5 C520 15.28, 520 22.07, 520 25.5 M520 25.5 C520 31.17, 517.17 34, 511.5 34 M520 25.5 C520 31.17, 517.17 34, 511.5 34 M511.5 34 C390.34 34, 269.17 34, 8.5 34 M511.5 34 C318.99 34, 126.47 34, 8.5 34 M8.5 34 C2.83 34, 0 31.17, 0 25.5 M8.5 34 C2.83 34, 0 31.17, 0 25.5 M0 25.5 C0 19.47, 0 13.45, 0 8.5 M0 25.5 C0 20.5, 0 15.5, 0 8.5 M0 8.5 C0 2.83, 2.83 0, 8.5 0 M0 8.5 C0 2.83, 2.83 0, 8.5 0" stroke="#c2410c" stroke-width="2" fill="none"></path></g><g transform="translate(45 758) rotate(0 250 11)"><text x="250" y="12.1802734375" font-family="Helvetica, sans-serif, Segoe UI Emoji" font-size="14px" fill="#7c2d12" text-anchor="middle" style="white-space: pre;" direction="ltr" dominant-baseline="alphabetic">Key: DNS is not enough; route FakeIP ranges to msf</text></g></svg>